<?xml version="1.0" encoding="utf-8"?>
<!-- Generator: Adobe Illustrator 24.0.0, SVG Export Plug-In . SVG Version: 6.00 Build 0)  -->
<svg version="1.1" id="圖層_1" xmlns="http://www.w3.org/2000/svg" xmlns:xlink="http://www.w3.org/1999/xlink" x="0px" y="0px"
	 viewBox="0 0 399.7 124.7" style="enable-background:new 0 0 399.7 124.7;" xml:space="preserve">
<style type="text/css">
	.st0{fill:#FFFFFF;}
</style>
<g>
	<path class="st0" d="M104.9,39.4L104.9,39.4c3.1,7.1,4.5,14.7,4.5,23v1.4c-0.2,7.7-1.8,14.9-4.5,21.6c-2.9,6.5-7,12.6-12.5,18
		c-11.3,11.3-25,17.1-41.1,17.1s-29.8-5.7-41.1-17.1l-0.7-0.8l-0.9-0.9c-0.7-0.9-1-2.1-1-3.4c0-1.5,0.5-3,1.6-4
		c1.1-1.1,2.5-1.6,4-1.6c1,0,2,0.2,2.7,0.6l2.2,2.3l0.4,0.3c9.1,9,20,13.5,32.8,13.5c13,0,24-4.6,33.2-13.8c3.3-3.3,6-6.8,8-10.5
		c3.6-6.4,5.6-13.5,5.8-21.3v-1.4c0-13-4.6-24.1-13.8-33.3c-8.3-8.3-18.2-12.9-29.7-13.6l-3.5-0.1c-9.5,0-17.9,2.5-25.4,7.3
		c-2.8,1.9-5.5,4-7.9,6.5l-2.3,2.5c-0.8,0.5-1.8,0.7-2.9,0.7c-1.5,0-3-0.6-4.1-1.8c-1.1-1.1-1.6-2.4-1.6-3.9c0-1.2,0.3-2.3,0.9-3.2
		l1.4-1.5l0.7-0.7C15,16.4,20.3,12.7,25.8,10C33.5,6.2,42,4.2,51.2,4.2l3.5,0.1C69.4,5,81.8,10.7,92.3,21.2
		C97.9,26.7,102,32.8,104.9,39.4L104.9,39.4z M55.9,49L55.9,49c6.2,0,11.5,2.3,16,6.8c1.2,1.2,2.4,2.7,3.3,4.1
		c0.7,1.2,1.3,2.6,1.9,3.9c0.9,2.6,1.4,5.5,1.4,8.4c0,4.6-1.1,8.8-3.3,12.4l-0.2,0.1l-1.3,2l-1.8,2c-4.4,4.5-9.8,7-16.3,7.2l-16-0.4
		l0.9,0.1c-1.5,0-2.9-0.6-3.9-1.8c-1.1-1-1.6-2.4-1.6-3.8c0-1.5,0.5-2.9,1.6-4l0.7-0.5c0.9-0.6,2-0.8,3.2-0.8l18.1-0.7
		c1.4-0.6,2.8-1.5,4-2.9c2.5-2.4,3.6-5.3,3.6-8.8c0-3.3-1-6.1-3.2-8.4l-0.5-0.4c-1.6-1.8-3.6-3-5.9-3.4c-5.5-0.3-10.9-0.3-16.4,0
		h-0.5c-0.9-0.1-1.8-0.4-2.5-0.9l-0.8-0.7c-1-0.9-1.5-2.1-1.5-3.2v-0.6V32.9c0-1.5,0.5-2.8,1.4-3.9c1.1-1,2.5-1.5,4-1.5
		c1.4,0,2.7,0.5,3.8,1.5c1.1,1.1,1.8,2.4,1.8,3.9v18.5C49,49.8,52.3,49,55.9,49L55.9,49z M44.1,66.6L44.1,66.6c1.5,0,2.9,0.5,4,1.6
		c1.1,1.1,1.8,2.5,1.8,4s-0.6,2.9-1.8,4c-1,1.1-2.4,1.8-4,1.8h-0.7c-1.2-0.2-2.4-0.7-3.4-1.8c-1.1-1.1-1.6-2.4-1.6-4
		c0-1.5,0.5-2.9,1.6-4c0.9-0.9,2.1-1.4,3.3-1.5L44.1,66.6L44.1,66.6z"/>
	<g>
		<path class="st0" d="M211.3,81c0,8.8-2.8,15.4-8.3,20c-5.2,4.1-12.3,6.1-21.3,6.1H145c-9.6,0-14.3-4.2-14.3-12.5V31.2
			c0-3.8,1.4-6.7,4.1-8.9c2.4-1.9,5.6-2.8,9.5-2.8h35.6c18.3,0,27.4,7,27.4,20.9c0,4.9-1,8.8-3.1,11.9c-2,3.1-5.3,5.8-9.6,8.1
			c4.7,0.5,8.7,2.8,11.9,7.1C209.7,71.6,211.3,76.1,211.3,81z M191.1,44.2c0-6.5-3.6-9.8-10.8-9.8h-24.1c-6.1,0-9.2,2.9-9.2,8.7
			v11.5h33.4c3.2,0,5.8-0.9,7.8-2.7C190.1,50.1,191.1,47.5,191.1,44.2z M195.2,80.4c0-7.3-4.5-10.9-13.5-10.9H147v14.2
			c0,5.6,2.9,8.5,8.8,8.5h25.9c4,0,7.2-0.9,9.5-2.8C193.9,87.2,195.2,84.2,195.2,80.4z"/>
		<path class="st0" d="M297.9,98.8c0,5.5-2.3,8.3-6.8,8.3c-3.1,0-5.7-1.4-7.9-4.2l-43.6-56.1v52.5c0,5.3-2.7,7.9-8.1,7.9
			c-4.8,0-7.3-2.7-7.3-8V27.4c0-5.3,2.4-7.9,7.3-7.9c3.3,0,6.1,1.3,8.3,4l42.9,55.1V27.4c0-5.3,2.4-7.9,7.3-7.9
			c5.4,0,8.1,2.6,8.1,7.9V98.8z"/>
		<path class="st0" d="M391.3,97.7c0,6.7-2.7,10.1-8.2,10.1c-5.2,0-7.7-3.4-7.6-10.2c-6.2,6.6-15.6,10.2-26.5,10.2
			c-12.4,0-21.3-4.6-28.3-13.2c-6.5-8-9.8-18.2-9.8-30.8c0-13.4,3.5-24.2,10.5-32.2c7.4-8.6,17.6-12.9,30.8-12.9
			c14,0,25.6,5.3,33,13c4.1,4.2,6.1,8,6.1,11.5c0,1.9-0.6,3.6-1.8,5c-1.1,1.4-2.7,2-4.5,2c-3.3,0-6.1-1.4-8.2-4.1
			c-6.1-7.8-15.3-13.1-25.4-13.1c-7.5,0-13.6,3.3-18.3,9.8c-4.2,5.8-6.4,12.7-6.4,20.5c0,8.6,2,15.7,5.9,21c4.5,6.1,11,9.1,19.2,9.1
			c11.4,0,19.3-6,23.7-18h-15.4c-4.5,0-6.8-2.3-6.8-7.1c0-4.7,2.3-7.1,6.8-7.1h21.2c6.7,0,10,3.1,10,9.2V97.7z"/>
	</g>
</g>
</svg>
